<svg width="128" height="24" viewBox="0 0 128 24" fill="none" xmlns="http://www.w3.org/2000/svg">
<path d="M10.9427 17.2825C11.0109 17.3629 11.1401 17.2906 11.109 17.1898C10.9629 16.7159 10.8642 16.2792 10.871 15.8174C10.8798 15.2212 11.0812 14.7189 11.4876 14.2984C11.7999 13.9759 12.7241 13.0896 12.841 12.9402C13.1993 12.4831 13.2074 12.0038 12.8349 11.5563C12.6132 11.2906 12.3522 11.056 12.0953 10.8214C11.6701 10.432 11.2732 10.0236 11.0272 9.49227C10.8149 9.03458 10.8216 8.57756 11.0427 8.12731C11.1184 7.97317 11.1847 7.80618 11.2361 7.66556C11.3084 7.46545 11.499 7.33362 11.7113 7.33362C12.0426 7.33362 12.2853 7.64731 12.2015 7.96776C12.194 7.99548 12.1893 8.01711 12.1873 8.03063C12.1312 8.39029 12.05 9.05148 12.4618 9.46117C12.8194 9.81677 13.2108 10.1399 13.5603 10.5036C14.5873 11.5732 14.565 12.8942 13.5245 13.9434C13.0743 14.3971 12.5598 14.7831 12.1596 15.2908C11.7668 15.7884 11.5788 16.3509 11.5633 16.9728C11.5491 17.534 11.5525 18.0958 11.5558 18.6576C11.5572 18.8955 11.5247 19.0084 11.2638 18.8347C10.1226 18.0748 8.81713 17.7936 7.49544 17.5651C7.10874 17.4981 6.71865 17.4494 6.33195 17.3852C5.89116 17.3122 5.63967 17.0364 5.54975 16.6111C5.51527 16.4475 5.49432 11.5265 5.49567 9.23536C5.49567 8.49846 5.77285 8.19627 6.49758 8.2659C7.5475 8.36731 8.58457 8.56877 9.57972 8.9379C9.85893 9.04134 10.0577 9.2259 10.1192 9.53283C10.2247 10.0561 10.5749 10.6138 10.8541 10.8762C11.1083 11.1155 11.6316 11.4014 11.9763 11.7057C12.4915 12.1607 12.4983 12.4514 11.973 12.9111C11.6606 13.1842 11.1962 13.5777 10.9089 13.8758C10.1098 14.7047 9.99212 15.6843 10.5505 16.6875C10.6621 16.8876 10.7763 17.0871 10.9427 17.2825Z" fill="#00D3BB"/>
<path d="M18.501 16.292C18.4983 17.0276 18.1852 17.3379 17.4592 17.4298C16.0543 17.6076 14.6583 17.8334 13.3616 18.45C13.1392 18.5555 12.9303 18.69 12.7159 18.8124C12.6003 18.8786 12.4901 18.9111 12.4942 18.7218C12.5091 17.9714 12.4178 17.2176 12.555 16.4712C12.6287 16.0703 12.8403 15.7485 13.1263 15.4632C13.5394 15.0515 13.9944 14.679 14.352 14.2145C15.3485 12.9192 15.2714 11.298 14.1573 10.0987C13.9667 9.89317 13.7699 9.69035 13.559 9.50646C13.3994 9.3672 13.4319 9.32258 13.6104 9.24551C14.64 8.80336 15.7251 8.57486 16.8237 8.39908C17.111 8.35311 17.403 8.32404 17.6938 8.31998C18.2535 8.31322 18.4989 8.55728 18.5016 9.11638C18.507 10.3292 18.505 15.113 18.501 16.292Z" fill="#00D3BB"/>
<path d="M10.9015 7.40259C9.58723 7.35527 8.39062 6.57578 7.99039 5.49138C7.8065 4.99313 7.83963 4.45837 7.78149 3.93983C7.73214 3.49769 7.69833 3.0569 7.56583 2.62964C7.51445 2.464 7.56042 2.38558 7.75783 2.39166C8.77935 2.42344 9.61495 3.21645 9.64538 4.2231C9.67174 5.07831 10.049 5.76383 10.6067 6.37769C10.8014 6.592 11.0103 6.80023 11.1286 7.072C11.2557 7.36473 11.2213 7.41409 10.9015 7.40259Z" fill="#0069A8"/>
<path d="M13.6165 4.23527C13.6165 3.22795 14.4832 2.43561 15.5041 2.40383C15.7015 2.39775 15.7475 2.4755 15.6961 2.6418C15.5636 3.06907 15.5298 3.50986 15.4804 3.952C15.4223 4.46986 15.4561 5.00462 15.2715 5.50355C14.8706 6.58794 13.674 7.36744 12.3604 7.41476C12.2239 7.41814 12.2482 7.29713 12.2272 7.22006C12.0826 6.688 11.779 6.28237 11.3686 5.90513C10.6432 5.23718 9.96245 4.51854 10.172 3.38006C10.3424 2.45589 10.8623 1.74873 11.5228 1.13352C11.6972 0.971269 11.9014 1.22749 11.9832 1.33296C12.4713 1.96169 12.9722 2.59448 13.0196 3.44564C13.0344 3.71944 12.9601 4.00541 12.7877 4.2684C12.7491 4.32721 12.6613 4.31978 12.6288 4.25758C12.3834 3.78231 12.0947 3.34288 11.754 2.93319C11.6986 2.86693 11.5924 2.87437 11.5485 2.94873C11.1679 3.59031 11.2922 4.20079 11.9007 4.70513C12.3111 5.04518 12.5592 5.4853 12.8587 5.96597C13.027 6.2364 13.6159 5.23178 13.6159 4.23662L13.6165 4.23527Z" fill="#0069A8"/>
<path d="M34.18 18.7C33.5267 18.7 32.9067 18.6133 32.32 18.44C31.7467 18.2533 31.2333 17.9867 30.78 17.64C30.3267 17.2933 29.9467 16.8667 29.64 16.36C29.3333 15.84 29.1133 15.24 28.98 14.56C29.0333 14.64 29.1067 14.7067 29.2 14.76C29.3067 14.8 29.4067 14.84 29.5 14.88C29.6067 14.9067 29.66 14.9533 29.66 15.02L28.8 18.5H27.8L28.64 14H29.78C29.86 14.5467 30.02 15.0533 30.26 15.52C30.5133 15.9733 30.8333 16.3667 31.22 16.7C31.6067 17.02 32.0467 17.2667 32.54 17.44C33.0467 17.6133 33.6 17.7 34.2 17.7C34.8267 17.7 35.38 17.5933 35.86 17.38C36.3533 17.1533 36.7333 16.8333 37 16.42C37.2667 15.9933 37.4 15.48 37.4 14.88C37.4 14.4267 37.3 14.04 37.1 13.72C36.9 13.3867 36.6333 13.1 36.3 12.86C35.9667 12.62 35.5867 12.4067 35.16 12.22C34.7467 12.02 34.32 11.8333 33.88 11.66C33.2667 11.38 32.68 11.08 32.12 10.76C31.56 10.44 31.1067 10.04 30.76 9.56C30.4133 9.08 30.24 8.47333 30.24 7.74C30.24 7.02 30.4133 6.38667 30.76 5.84C31.1067 5.29333 31.6 4.86667 32.24 4.56C32.8933 4.25333 33.6533 4.1 34.52 4.1C35.2933 4.1 35.9667 4.24667 36.54 4.54C37.1267 4.83333 37.5933 5.23333 37.94 5.74C38.2867 6.24667 38.5 6.82667 38.58 7.48C38.5533 7.49333 38.4933 7.48667 38.4 7.46C38.32 7.42 38.2333 7.37333 38.14 7.32C38.06 7.25333 37.98 7.20667 37.9 7.18L38.66 4.34H39.58L38.92 8.06H37.88C37.8133 7.51333 37.6333 7.02 37.34 6.58C37.06 6.12667 36.68 5.76667 36.2 5.5C35.72 5.23333 35.1467 5.1 34.48 5.1C33.8533 5.1 33.3267 5.20667 32.9 5.42C32.4733 5.63333 32.1533 5.92667 31.94 6.3C31.7267 6.66 31.62 7.08 31.62 7.56C31.62 7.97333 31.7067 8.33333 31.88 8.64C32.0533 8.93333 32.2933 9.18667 32.6 9.4C32.9067 9.61333 33.26 9.81333 33.66 10C34.06 10.1867 34.48 10.3733 34.92 10.56C35.4 10.7733 35.8733 11 36.34 11.24C36.8067 11.4667 37.2267 11.74 37.6 12.06C37.9867 12.3667 38.2933 12.7333 38.52 13.16C38.7467 13.5867 38.86 14.0933 38.86 14.68C38.86 15.32 38.7333 15.8933 38.48 16.4C38.2267 16.9067 37.8867 17.3333 37.46 17.68C37.0333 18.0133 36.5333 18.2667 35.96 18.44C35.4 18.6133 34.8067 18.7 34.18 18.7ZM43.5094 14.7C43.4427 15.0467 43.3894 15.3533 43.3494 15.62C43.3094 15.8733 43.2894 16.1067 43.2894 16.32C43.2894 16.5867 43.3294 16.82 43.4094 17.02C43.5027 17.22 43.6427 17.3733 43.8294 17.48C44.0294 17.5733 44.276 17.62 44.5694 17.62C45.036 17.62 45.4894 17.48 45.9294 17.2C46.3694 16.9067 46.8094 16.4867 47.2494 15.94C47.6894 15.3933 48.1294 14.7333 48.5694 13.96L48.9494 14.46C48.4827 15.3133 48.0027 16.06 47.5094 16.7C47.0294 17.3267 46.5094 17.8133 45.9494 18.16C45.4027 18.5067 44.8027 18.68 44.1494 18.68C43.4427 18.68 42.876 18.48 42.4494 18.08C42.036 17.68 41.8294 17.1333 41.8294 16.44C41.8294 16.2267 41.8427 15.9733 41.8694 15.68C41.9094 15.3867 41.9627 15.0667 42.0294 14.72L42.9094 10.08C42.9494 9.88 42.916 9.72667 42.8094 9.62C42.716 9.5 42.5627 9.40667 42.3494 9.34C42.136 9.27333 41.8627 9.21333 41.5294 9.16L41.2694 9.12L41.4094 8.34H44.6894L43.5094 14.7ZM49.4694 15.44C49.4294 15.68 49.3894 15.9 49.3494 16.1C49.3227 16.3 49.296 16.48 49.2694 16.64C49.256 16.8 49.2494 16.94 49.2494 17.06C49.2494 17.2467 49.3027 17.3933 49.4094 17.5C49.5294 17.5933 49.696 17.64 49.9094 17.64C50.2294 17.64 50.5294 17.58 50.8094 17.46C51.0894 17.34 51.276 17.2667 51.3694 17.24L51.2094 18.12C51.0894 18.2 50.9427 18.2867 50.7694 18.38C50.596 18.46 50.4027 18.52 50.1894 18.56C49.9894 18.6133 49.776 18.64 49.5494 18.64C49.0827 18.64 48.696 18.5133 48.3894 18.26C48.096 17.9933 47.9494 17.6067 47.9494 17.1C47.9494 16.9533 47.956 16.7933 47.9694 16.62C47.996 16.4467 48.0227 16.2667 48.0494 16.08C48.0894 15.88 48.1294 15.6733 48.1694 15.46L48.0294 15.44L49.2694 8.34H50.7094L49.4694 15.44ZM50.8439 22.96L50.9639 22.18H51.0039C51.4839 22.18 51.8906 22.1333 52.2239 22.04C52.5572 21.96 52.7506 21.7733 52.8039 21.48L54.8239 10.06C54.8639 9.86 54.8306 9.70667 54.7239 9.6C54.6306 9.49333 54.4772 9.40667 54.2639 9.34C54.0506 9.27333 53.7772 9.21333 53.4439 9.16L53.2039 9.12L53.3239 8.34H56.4239L55.9039 11.4L56.0439 11.22L54.1839 21.96C54.1839 22 54.2306 22.0333 54.3239 22.06C54.4172 22.0867 54.5439 22.1067 54.7039 22.12C54.8639 22.1467 55.0306 22.16 55.2039 22.16C55.3772 22.1733 55.5306 22.18 55.6639 22.18H56.2439L56.1039 22.96H50.8439ZM53.8039 16.3L54.6239 15.34C54.7172 15.86 54.8972 16.3 55.1639 16.66C55.4306 17.02 55.7572 17.2933 56.1439 17.48C56.5439 17.6667 56.9839 17.76 57.4639 17.76C57.9572 17.76 58.4172 17.66 58.8439 17.46C59.2706 17.26 59.6506 16.98 59.9839 16.62C60.3306 16.26 60.6239 15.8467 60.8639 15.38C61.1039 14.9 61.2839 14.38 61.4039 13.82C61.5372 13.2467 61.6039 12.66 61.6039 12.06C61.6039 11.4467 61.5372 10.92 61.4039 10.48C61.2706 10.04 61.0572 9.7 60.7639 9.46C60.4839 9.22 60.1172 9.1 59.6639 9.1C59.1572 9.1 58.6706 9.25333 58.2039 9.56C57.7506 9.86667 57.2972 10.3067 56.8439 10.88C56.3906 11.44 55.9239 12.12 55.4439 12.92L55.0639 12.32C55.5572 11.44 56.0439 10.6933 56.5239 10.08C57.0039 9.45333 57.5106 8.97333 58.0439 8.64C58.5906 8.30667 59.1972 8.14 59.8639 8.14C60.5706 8.14 61.1639 8.3 61.6439 8.62C62.1372 8.94 62.5106 9.4 62.7639 10C63.0172 10.6 63.1439 11.32 63.1439 12.16C63.1439 12.8533 63.0506 13.5267 62.8639 14.18C62.6906 14.8333 62.4306 15.44 62.0839 16C61.7506 16.5467 61.3506 17.0267 60.8839 17.44C60.4172 17.84 59.8906 18.16 59.3039 18.4C58.7306 18.6267 58.1039 18.74 57.4239 18.74C56.8506 18.74 56.3239 18.64 55.8439 18.44C55.3639 18.24 54.9506 17.96 54.6039 17.6C54.2706 17.24 54.0039 16.8067 53.8039 16.3ZM68.9761 18.74C68.2028 18.74 67.5028 18.5733 66.8761 18.24C66.2494 17.8933 65.7561 17.3867 65.3961 16.72C65.0361 16.0533 64.8561 15.2333 64.8561 14.26C64.8561 13.5133 64.9761 12.78 65.2161 12.06C65.4694 11.3267 65.8228 10.6667 66.2761 10.08C66.7428 9.48 67.3028 9.00667 67.9561 8.66C68.6228 8.31333 69.3561 8.14 70.1561 8.14C70.8094 8.14 71.3628 8.24667 71.8161 8.46C72.2828 8.67333 72.6361 8.97333 72.8761 9.36C73.1161 9.74667 73.2361 10.1867 73.2361 10.68C73.2361 11.2933 73.0761 11.84 72.7561 12.32C72.4494 12.7867 71.9828 13.18 71.3561 13.5C70.7428 13.8067 69.9694 14.04 69.0361 14.2C68.1161 14.3467 67.0428 14.42 65.8161 14.42L65.9761 13.58C67.0694 13.5667 67.9894 13.4933 68.7361 13.36C69.4828 13.2267 70.0828 13.04 70.5361 12.8C70.9894 12.56 71.3161 12.2667 71.5161 11.92C71.7161 11.56 71.8161 11.1467 71.8161 10.68C71.8161 10.36 71.7494 10.08 71.6161 9.84C71.4828 9.6 71.2894 9.42 71.0361 9.3C70.7828 9.16667 70.4694 9.1 70.0961 9.1C69.5761 9.1 69.0894 9.23333 68.6361 9.5C68.1828 9.76667 67.7828 10.1467 67.4361 10.64C67.1028 11.12 66.8361 11.68 66.6361 12.32C66.4494 12.96 66.3561 13.66 66.3561 14.42C66.3561 15.14 66.4628 15.7533 66.6761 16.26C66.8894 16.7533 67.1961 17.1333 67.5961 17.4C67.9961 17.6533 68.4828 17.78 69.0561 17.78C69.5494 17.78 69.9828 17.6867 70.3561 17.5C70.7428 17.3133 71.0761 17.06 71.3561 16.74C71.6361 16.42 71.8761 16.0667 72.0761 15.68L72.8561 16.28C72.6028 16.7867 72.2828 17.2267 71.8961 17.6C71.5228 17.96 71.0894 18.24 70.5961 18.44C70.1028 18.64 69.5628 18.74 68.9761 18.74ZM75.1594 18.5L76.6594 10.06C76.6994 9.86 76.666 9.70667 76.5594 9.6C76.466 9.49333 76.3127 9.40667 76.0994 9.34C75.886 9.27333 75.6127 9.21333 75.2794 9.16L75.0194 9.12L75.1594 8.34H78.2594L77.7194 11.44L77.8594 11.34L76.5994 18.5H75.1594ZM81.6394 8.26L81.3994 9.74C81.2927 9.71333 81.166 9.68 81.0194 9.64C80.8727 9.6 80.6927 9.58 80.4794 9.58C80.1727 9.58 79.886 9.65333 79.6194 9.8C79.366 9.94667 79.1194 10.1667 78.8794 10.46C78.6394 10.7533 78.3927 11.1267 78.1394 11.58C77.886 12.02 77.6127 12.5467 77.3194 13.16L76.9594 12.72C77.2527 12.0667 77.5394 11.4667 77.8194 10.92C78.1127 10.36 78.4127 9.87333 78.7194 9.46C79.0394 9.04667 79.3727 8.72667 79.7194 8.5C80.0794 8.26 80.4727 8.14 80.8994 8.14C81.086 8.14 81.2394 8.15333 81.3594 8.18C81.4927 8.20667 81.586 8.23333 81.6394 8.26ZM83.2877 4.3H88.0877L87.9277 5.12H87.5877C87.3343 5.12 87.0743 5.12667 86.8077 5.14C86.541 5.15333 86.3143 5.17333 86.1277 5.2C85.9543 5.22667 85.861 5.26667 85.8477 5.32L86.9277 17.74H86.5677L92.5477 4.3H94.1077L95.3677 17.74H94.9677L100.448 5.48C100.461 5.4 100.381 5.33333 100.208 5.28C100.048 5.22667 99.841 5.18667 99.5877 5.16C99.3343 5.13333 99.081 5.12 98.8277 5.12H98.5277L98.6877 4.3H103.148L102.988 5.12H102.888C102.541 5.12 102.241 5.18 101.988 5.3C101.734 5.40667 101.528 5.63333 101.368 5.98L95.7277 18.5H94.0877L92.8477 5.28L93.1677 5.34L87.2477 18.5H85.6677L84.4877 5.86C84.461 5.51333 84.3343 5.30667 84.1077 5.24C83.8943 5.16 83.601 5.12 83.2277 5.12H83.1277L83.2877 4.3ZM103.82 17.16C103.82 16.9733 103.833 16.7733 103.86 16.56C103.887 16.3333 103.927 16.0733 103.98 15.78C104.033 15.4867 104.093 15.1467 104.16 14.76L104.98 10.08C105.02 9.88 104.987 9.72667 104.88 9.62C104.787 9.5 104.633 9.40667 104.42 9.34C104.207 9.27333 103.933 9.21333 103.6 9.16L103.34 9.12L103.48 8.34H106.72L105.54 15.12C105.487 15.4 105.44 15.6667 105.4 15.92C105.36 16.16 105.327 16.3733 105.3 16.56C105.287 16.7467 105.28 16.9067 105.28 17.04C105.28 17.24 105.333 17.3933 105.44 17.5C105.56 17.5933 105.727 17.64 105.94 17.64C106.153 17.64 106.353 17.6133 106.54 17.56C106.74 17.4933 106.913 17.4333 107.06 17.38C107.22 17.3133 107.333 17.2667 107.4 17.24L107.24 18.12C107.12 18.2 106.973 18.2867 106.8 18.38C106.627 18.46 106.433 18.52 106.22 18.56C106.007 18.6133 105.78 18.64 105.54 18.64C105.207 18.64 104.907 18.5867 104.64 18.48C104.387 18.3733 104.187 18.2133 104.04 18C103.893 17.7733 103.82 17.4933 103.82 17.16ZM105.2 4.7C105.2 4.36667 105.3 4.10667 105.5 3.92C105.713 3.73333 105.973 3.64 106.28 3.64C106.587 3.64 106.84 3.73333 107.04 3.92C107.253 4.10667 107.36 4.36667 107.36 4.7C107.36 5.03333 107.253 5.3 107.04 5.5C106.84 5.68667 106.587 5.78 106.28 5.78C105.973 5.78 105.713 5.68667 105.5 5.5C105.3 5.3 105.2 5.03333 105.2 4.7ZM112.357 18.72C111.704 18.72 111.117 18.6467 110.597 18.5C110.077 18.3667 109.624 18.1867 109.237 17.96C108.864 17.7333 108.551 17.4867 108.297 17.22L108.617 15.34H110.117L109.657 17.7C109.497 17.6067 109.377 17.4933 109.297 17.36C109.231 17.2133 109.197 17.06 109.197 16.9C109.211 16.7267 109.264 16.5667 109.357 16.42C109.571 16.7133 109.824 16.96 110.117 17.16C110.424 17.36 110.771 17.5133 111.157 17.62C111.544 17.7133 111.971 17.76 112.437 17.76C112.944 17.76 113.371 17.6867 113.717 17.54C114.064 17.38 114.331 17.16 114.517 16.88C114.704 16.6 114.797 16.2667 114.797 15.88C114.797 15.6133 114.731 15.3867 114.597 15.2C114.464 15 114.284 14.8267 114.057 14.68C113.831 14.52 113.571 14.38 113.277 14.26C112.997 14.1267 112.711 13.9867 112.417 13.84C111.977 13.64 111.557 13.4267 111.157 13.2C110.757 12.96 110.424 12.6667 110.157 12.32C109.904 11.9733 109.777 11.5333 109.777 11C109.777 10.4 109.931 9.88667 110.237 9.46C110.557 9.03333 110.991 8.70667 111.537 8.48C112.084 8.25333 112.711 8.14 113.417 8.14C113.977 8.14 114.471 8.2 114.897 8.32C115.337 8.42667 115.704 8.56667 115.997 8.74C116.291 8.91333 116.504 9.10667 116.637 9.32L116.337 11.06H114.877L115.197 9.26C115.277 9.27333 115.371 9.34 115.477 9.46C115.584 9.56667 115.664 9.70667 115.717 9.88C115.771 10.04 115.757 10.2067 115.677 10.38C115.597 10.1 115.444 9.86667 115.217 9.68C115.004 9.49333 114.737 9.35333 114.417 9.26C114.111 9.15333 113.764 9.1 113.377 9.1C112.644 9.1 112.091 9.25333 111.717 9.56C111.357 9.86667 111.177 10.2667 111.177 10.76C111.177 11.12 111.277 11.42 111.477 11.66C111.691 11.8867 111.971 12.0867 112.317 12.26C112.664 12.4333 113.037 12.62 113.437 12.82C113.877 13.02 114.311 13.24 114.737 13.48C115.164 13.7067 115.511 14 115.777 14.36C116.057 14.7067 116.197 15.1533 116.197 15.7C116.197 16.3 116.037 16.8333 115.717 17.3C115.397 17.7533 114.951 18.1067 114.377 18.36C113.804 18.6 113.131 18.72 112.357 18.72ZM122.14 18.74C121.367 18.74 120.667 18.5733 120.04 18.24C119.413 17.8933 118.92 17.3867 118.56 16.72C118.2 16.0533 118.02 15.2333 118.02 14.26C118.02 13.5133 118.14 12.78 118.38 12.06C118.633 11.3267 118.987 10.6667 119.44 10.08C119.907 9.48 120.467 9.00667 121.12 8.66C121.787 8.31333 122.52 8.14 123.32 8.14C123.973 8.14 124.527 8.24667 124.98 8.46C125.447 8.67333 125.8 8.97333 126.04 9.36C126.28 9.74667 126.4 10.1867 126.4 10.68C126.4 11.2933 126.24 11.84 125.92 12.32C125.613 12.7867 125.147 13.18 124.52 13.5C123.907 13.8067 123.133 14.04 122.2 14.2C121.28 14.3467 120.207 14.42 118.98 14.42L119.14 13.58C120.233 13.5667 121.153 13.4933 121.9 13.36C122.647 13.2267 123.247 13.04 123.7 12.8C124.153 12.56 124.48 12.2667 124.68 11.92C124.88 11.56 124.98 11.1467 124.98 10.68C124.98 10.36 124.913 10.08 124.78 9.84C124.647 9.6 124.453 9.42 124.2 9.3C123.947 9.16667 123.633 9.1 123.26 9.1C122.74 9.1 122.253 9.23333 121.8 9.5C121.347 9.76667 120.947 10.1467 120.6 10.64C120.267 11.12 120 11.68 119.8 12.32C119.613 12.96 119.52 13.66 119.52 14.42C119.52 15.14 119.627 15.7533 119.84 16.26C120.053 16.7533 120.36 17.1333 120.76 17.4C121.16 17.6533 121.647 17.78 122.22 17.78C122.713 17.78 123.147 17.6867 123.52 17.5C123.907 17.3133 124.24 17.06 124.52 16.74C124.8 16.42 125.04 16.0667 125.24 15.68L126.02 16.28C125.767 16.7867 125.447 17.2267 125.06 17.6C124.687 17.96 124.253 18.24 123.76 18.44C123.267 18.64 122.727 18.74 122.14 18.74Z" fill="#18181B"/>
</svg>
