<svg width="32" height="32" viewBox="0 0 32 32" fill="none" xmlns="http://www.w3.org/2000/svg">
    <path d="M0 6.4C0 4.15979 0 3.03968 0.435974 2.18404C0.819467 1.43139 1.43139 0.819467 2.18404 0.435974C3.03968 0 4.15979 0 6.4 0H25.6C27.8402 0 28.9603 0 29.816 0.435974C30.5686 0.819467 31.1805 1.43139 31.564 2.18404C32 3.03968 32 4.15979 32 6.4V25.6C32 27.8402 32 28.9603 31.564 29.816C31.1805 30.5686 30.5686 31.1805 29.816 31.564C28.9603 32 27.8402 32 25.6 32H6.4C4.15979 32 3.03968 32 2.18404 31.564C1.43139 31.1805 0.819467 30.5686 0.435974 29.816C0 28.9603 0 27.8402 0 25.6V6.4Z"
          fill="transparent"/>
    <path d="M14.5899 25.71C14.6809 25.8172 14.8531 25.7208 14.8116 25.5865C14.6169 24.9546 14.4853 24.3723 14.4943 23.7566C14.506 22.9616 14.7747 22.2918 15.3164 21.7311C15.7329 21.3012 16.9651 20.1194 17.121 19.9202C17.5988 19.3109 17.6096 18.6718 17.1129 18.075C16.8173 17.7208 16.4693 17.408 16.1268 17.0952C15.5598 16.576 15.0307 16.0315 14.7026 15.323C14.4195 14.7128 14.4285 14.1034 14.7233 13.5031C14.8242 13.2976 14.9126 13.0749 14.9811 12.8874C15.0775 12.6206 15.3317 12.4448 15.6148 12.4448C16.0565 12.4448 16.3801 12.8631 16.2683 13.2903C16.2584 13.3273 16.2521 13.3561 16.2494 13.3742C16.1746 13.8537 16.0664 14.7353 16.6153 15.2816C17.0922 15.7557 17.6141 16.1866 18.0801 16.6715C19.4494 18.0976 19.4196 19.8589 18.0324 21.2579C17.432 21.8627 16.746 22.3774 16.2124 23.0544C15.6887 23.7178 15.4381 24.4678 15.4174 25.2971C15.3984 26.0453 15.4029 26.7943 15.4075 27.5434C15.4093 27.8607 15.366 28.0112 15.018 27.7796C13.4965 26.7664 11.7559 26.3914 9.9936 26.0867C9.47799 25.9975 8.95788 25.9326 8.44227 25.847C7.85455 25.7496 7.51923 25.3818 7.39934 24.8149C7.35337 24.5967 7.32543 18.0354 7.32723 14.9805C7.32723 13.998 7.69681 13.595 8.66312 13.6879C10.063 13.8231 11.4458 14.0917 12.7726 14.5839C13.1449 14.7218 13.4099 14.9679 13.492 15.3771C13.6326 16.0748 14.0995 16.8185 14.4718 17.1682C14.8107 17.4873 15.5084 17.8686 15.9681 18.2742C16.655 18.8809 16.664 19.2685 15.9636 19.8814C15.5472 20.2456 14.9279 20.7702 14.5448 21.1678C13.4793 22.2729 13.3225 23.579 14.0671 24.9167C14.2158 25.1835 14.3681 25.4494 14.5899 25.71Z"
          fill="#00D3BB"/>
    <path d="M24.6676 24.3894C24.664 25.3701 24.2467 25.7839 23.2786 25.9065C21.4054 26.1435 19.544 26.4446 17.8151 27.2667C17.5186 27.4073 17.24 27.5867 16.9543 27.7498C16.8001 27.8382 16.6532 27.8814 16.6586 27.6291C16.6784 26.6285 16.5568 25.6234 16.7397 24.6283C16.838 24.0937 17.1201 23.6647 17.5014 23.2843C18.0522 22.7353 18.6588 22.2386 19.1357 21.6194C20.4644 19.8923 20.3616 17.7307 18.8761 16.1316C18.6219 15.8576 18.3596 15.5871 18.0783 15.342C17.8656 15.1563 17.9089 15.0968 18.1468 14.994C19.5197 14.4045 20.9664 14.0998 22.4312 13.8654C22.8143 13.8041 23.2037 13.7654 23.5913 13.76C24.3377 13.751 24.6649 14.0764 24.6685 14.8218C24.6757 16.439 24.673 22.8173 24.6676 24.3894Z"
          fill="#00D3BB"/>
    <path d="M14.535 12.5369C12.7827 12.4738 11.1872 11.4344 10.6535 9.98859C10.4083 9.32425 10.4525 8.61124 10.375 7.91986C10.3092 7.33034 10.2641 6.74262 10.0874 6.17293C10.0189 5.95208 10.0802 5.84752 10.3434 5.85563C11.7055 5.898 12.8196 6.95535 12.8602 8.29755C12.8953 9.43783 13.3983 10.3519 14.142 11.1703C14.4016 11.4561 14.6801 11.7337 14.8379 12.0961C15.0073 12.4864 14.9614 12.5522 14.535 12.5369Z"
          fill="#0069A8"/>
    <path d="M18.155 8.31377C18.155 6.97068 19.3107 5.91422 20.6718 5.87186C20.935 5.86375 20.9963 5.96741 20.9278 6.18915C20.7511 6.75884 20.706 7.34656 20.6402 7.93608C20.5627 8.62656 20.6078 9.33958 20.3617 10.0048C19.8272 11.4507 18.2317 12.49 16.4802 12.5531C16.2981 12.5576 16.3306 12.3963 16.3027 12.2935C16.1098 11.5841 15.705 11.0432 15.1579 10.5403C14.1907 9.64966 13.2829 8.69146 13.5624 7.17349C13.7895 5.94127 14.4827 4.99839 15.3634 4.17811C15.596 3.96177 15.8682 4.30341 15.9772 4.44403C16.6281 5.28234 17.296 6.12606 17.3591 7.26093C17.3789 7.626 17.2798 8.00729 17.0499 8.35794C16.9985 8.43637 16.8814 8.42645 16.8381 8.34352C16.5109 7.70983 16.126 7.12391 15.6717 6.57766C15.5978 6.48932 15.4562 6.49924 15.3976 6.59839C14.8901 7.45383 15.056 8.2678 15.8673 8.94025C16.4144 9.39366 16.7452 9.98048 17.1446 10.6214C17.369 10.9819 18.1541 9.64245 18.1541 8.31558L18.155 8.31377Z"
          fill="#0069A8"/>
</svg>
