<svg width="192" height="192" viewBox="0 0 192 192" fill="none" xmlns="http://www.w3.org/2000/svg">
<path d="M87.5422 148.26C88.0884 148.903 89.1215 148.325 88.8727 147.519C87.7045 143.727 86.9148 140.234 86.9689 136.54C87.0392 131.769 88.6509 127.751 91.9014 124.387C94.4001 121.807 101.793 114.716 102.729 113.521C105.596 109.865 105.661 106.031 102.68 102.45C100.906 100.325 98.8188 98.4479 96.7636 96.5711C93.3617 93.4559 90.1869 90.1892 88.2183 85.9381C86.52 82.2766 86.5741 78.6205 88.3426 75.0185C88.9484 73.7853 89.4784 72.4495 89.8895 71.3245C90.4682 69.7236 91.9933 68.6689 93.6916 68.6689C96.3417 68.6689 98.2834 71.1785 97.6127 73.7421C97.5532 73.9638 97.5154 74.1369 97.4992 74.2451C97.0503 77.1224 96.4012 82.4118 99.695 85.6893C102.556 88.5342 105.688 91.1194 108.484 94.0292C116.699 102.585 116.521 113.153 108.197 121.547C104.595 125.176 100.479 128.265 97.2774 132.326C94.1351 136.307 92.6315 140.807 92.5071 145.783C92.3936 150.272 92.4206 154.766 92.4477 159.26C92.4585 161.164 92.1989 162.067 90.1112 160.677C80.9817 154.598 70.538 152.348 59.9645 150.52C56.8709 149.985 53.7502 149.596 50.6566 149.082C47.1303 148.498 45.1183 146.291 44.399 142.889C44.1232 141.58 43.9555 102.212 43.9663 83.8829C43.9663 77.9877 46.1838 75.5701 51.9816 76.1272C60.381 76.9385 68.6775 78.5502 76.6388 81.5032C78.8724 82.3307 80.4625 83.8072 80.9547 86.2626C81.7984 90.4488 84.6 94.9107 86.8337 97.0092C88.8673 98.9238 93.0534 101.212 95.8117 103.645C99.933 107.285 99.987 109.611 95.7847 113.289C93.286 115.474 89.5704 118.621 87.2718 121.007C80.879 127.637 79.9379 135.474 84.4053 143.5C85.2977 145.101 86.2117 146.697 87.5422 148.26Z" fill="#00D3BB"/>
<path d="M148.009 140.336C147.987 146.221 145.483 148.703 139.674 149.439C128.435 150.861 117.267 152.668 106.894 157.6C105.114 158.444 103.443 159.52 101.729 160.499C100.804 161.029 99.9221 161.289 99.9546 159.774C100.074 153.771 99.3434 147.74 100.441 141.77C101.031 138.562 102.724 135.988 105.011 133.706C108.316 130.412 111.956 127.432 114.817 123.716C122.789 113.354 122.173 100.384 113.259 90.7895C111.734 89.1453 110.16 87.5228 108.473 86.0517C107.197 84.9376 107.456 84.5806 108.884 83.964C117.121 80.4269 125.802 78.5989 134.59 77.1927C136.889 76.8249 139.225 76.5923 141.551 76.5599C146.029 76.5058 147.992 78.4582 148.014 82.931C148.057 92.6338 148.041 130.904 148.009 140.336Z" fill="#00D3BB"/>
<path d="M87.2129 69.2209C76.6989 68.8423 67.1259 62.6063 63.9241 53.9312C62.453 49.9452 62.718 45.6671 62.2529 41.5188C61.8581 37.9817 61.5876 34.4553 60.5276 31.0372C60.1165 29.7121 60.4843 29.0848 62.0636 29.1334C70.2358 29.3876 76.9206 35.7317 77.164 43.7849C77.3749 50.6266 80.3928 56.1108 84.8548 61.0217C86.4124 62.7361 88.0836 64.4019 89.0301 66.5761C90.0469 68.918 89.7711 69.3128 87.2129 69.2209Z" fill="#0069A8"/>
<path d="M108.933 43.8823C108.933 35.8237 115.867 29.485 124.034 29.2308C125.613 29.1821 125.981 29.8041 125.57 31.1346C124.51 34.5527 124.239 38.079 123.844 41.6161C123.379 45.759 123.65 50.0371 122.173 54.0285C118.966 62.7037 109.393 68.9396 98.8843 69.3182C97.7918 69.3453 97.9865 68.3771 97.8189 67.7606C96.6614 63.5041 94.2331 60.2591 90.9501 57.2411C85.1469 51.8976 79.7005 46.1484 81.3772 37.0406C82.7401 29.6472 86.8992 23.99 92.1832 19.0683C93.5786 17.7703 95.212 19.8201 95.8664 20.6638C99.7713 25.6937 103.779 30.756 104.158 37.5652C104.277 39.7556 103.682 42.0434 102.302 44.1473C101.994 44.6178 101.291 44.5583 101.031 44.0608C99.0682 40.2586 96.7588 36.7431 94.0329 33.4656C93.5894 32.9356 92.7403 32.9951 92.3888 33.59C89.3438 38.7226 90.339 43.6064 95.2066 47.6411C98.4895 50.3616 100.474 53.8825 102.87 57.7279C104.217 59.8913 108.928 51.8543 108.928 43.8931L108.933 43.8823Z" fill="#0069A8"/>
</svg>
