<svg width="512" height="512" viewBox="0 0 512 512" fill="none" xmlns="http://www.w3.org/2000/svg">
<path d="M233.446 395.359C234.903 397.076 237.657 395.532 236.994 393.383C233.879 383.273 231.773 373.956 231.917 364.106C232.105 351.385 236.402 340.669 245.07 331.698C251.734 324.819 271.449 305.911 273.944 302.723C281.588 292.974 281.761 282.748 273.815 273.2C269.084 267.532 263.517 262.528 258.036 257.523C248.965 249.216 240.498 240.504 235.249 229.168C230.72 219.404 230.864 209.655 235.58 200.049C237.196 196.761 238.609 193.199 239.705 190.199C241.248 185.93 245.316 183.117 249.844 183.117C256.911 183.117 262.089 189.809 260.301 196.646C260.142 197.237 260.041 197.698 259.998 197.987C258.801 205.66 257.07 219.765 265.853 228.505C273.483 236.091 281.833 242.985 289.29 250.744C311.198 273.561 310.722 301.743 288.526 324.126C278.92 333.804 267.945 342.039 259.406 352.87C251.027 363.485 247.017 375.485 246.686 388.754C246.383 400.724 246.455 412.71 246.527 424.695C246.556 429.771 245.864 432.18 240.297 428.473C215.951 412.262 188.101 406.263 159.905 401.388C151.656 399.96 143.334 398.922 135.084 397.551C125.681 395.994 120.315 390.109 118.397 381.038C117.662 377.547 117.215 272.566 117.244 223.688C117.244 207.967 123.157 201.52 138.618 203.006C161.016 205.169 183.14 209.467 204.37 217.342C210.327 219.549 214.567 223.486 215.879 230.034C218.129 241.197 225.6 253.095 231.557 258.691C236.979 263.797 248.142 269.898 255.498 276.388C266.488 286.094 266.632 292.296 255.426 302.103C248.763 307.93 238.854 316.324 232.725 322.684C215.677 340.366 213.168 361.264 225.081 382.667C227.461 386.936 229.898 391.191 233.446 395.359Z" fill="#00D3BB"/>
<path d="M394.69 374.23C394.632 389.922 387.954 396.542 372.465 398.503C342.495 402.296 312.712 407.114 285.05 420.267C280.305 422.517 275.848 425.387 271.276 427.997C268.81 429.411 266.459 430.103 266.546 426.065C266.863 410.056 264.916 393.975 267.844 378.052C269.416 369.5 273.93 362.634 280.031 356.548C288.843 347.765 298.549 339.818 306.179 329.91C327.438 302.276 325.793 267.691 302.025 242.105C297.958 237.721 293.761 233.394 289.261 229.471C285.857 226.5 286.55 225.548 290.357 223.904C312.323 214.472 335.471 209.597 358.907 205.847C365.037 204.866 371.268 204.246 377.469 204.16C389.411 204.015 394.647 209.222 394.704 221.149C394.82 247.023 394.776 349.077 394.69 374.23Z" fill="#00D3BB"/>
<path d="M232.568 184.589C204.53 183.579 179.002 166.95 170.464 143.816C166.541 133.187 167.248 121.779 166.008 110.717C164.955 101.284 164.234 91.8809 161.407 82.7659C160.311 79.2324 161.292 77.5593 165.503 77.6891C187.295 78.367 205.122 95.2846 205.771 116.76C206.333 135.004 214.381 149.629 226.279 162.724C230.433 167.296 234.89 171.739 237.414 177.536C240.125 183.781 239.39 184.834 232.568 184.589Z" fill="#0069A8"/>
<path d="M290.489 117.019C290.489 95.5298 308.978 78.6266 330.756 77.9488C334.968 77.819 335.948 79.4776 334.852 83.0255C332.025 92.1405 331.304 101.544 330.252 110.976C329.011 122.024 329.732 133.432 325.795 144.076C317.242 167.21 291.715 183.839 263.692 184.849C260.778 184.921 261.297 182.339 260.85 180.695C257.764 169.344 251.288 160.691 242.534 152.643C227.058 138.394 212.535 123.062 217.006 98.7749C220.64 79.0593 231.731 63.9733 245.822 50.8488C249.543 47.3874 253.899 52.8535 255.644 55.1035C266.057 68.5164 276.744 82.0159 277.753 100.174C278.071 106.015 276.484 112.116 272.807 117.726C271.984 118.981 270.11 118.822 269.417 117.495C264.182 107.356 258.023 97.9817 250.755 89.2416C249.572 87.8282 247.308 87.9868 246.37 89.5733C238.25 103.26 240.904 116.284 253.884 127.043C262.639 134.298 267.932 143.687 274.321 153.941C277.912 159.71 290.474 138.278 290.474 117.048L290.489 117.019Z" fill="#0069A8"/>
</svg>
